<svg id="Layer_1" data-name="Layer 1" xmlns="http://www.w3.org/2000/svg" viewBox="0 0 1025.01 1025.01">
  <polygon points="100 400 400 400 400 300 200 300 200 200 400 200 500 300 500 500 0 500 0 100 100 0 500 0 500 100 100 100 100 400" fill="#5AB054"/>
  <path d="M100,625V725H440a60,60,0,0,1,60,60V965a60,60,0,0,1-60,60H300L200,925H400V825H100L0,725V525H500V625Z" fill="#3373B7"/>
  <path d="M1025,625V525H625L525,625V965a60,60,0,0,0,60,60H925l100-100V785a60,60,0,0,0-60-60H625V625ZM925,825V925H625V825Z" fill="#FBB33F"/>
  <polygon points="1025.01 300 1025.01 500 625.01 500 525.01 400 525.01 0 725.01 0 825.01 100 625.01 100 625.01 400 925.01 400 925.01 300 725.01 300 725.01 200 925.01 200 1025.01 300" fill="#5AB054"/>
</svg>
