<svg width="100" height="100" viewBox="0 0 100 100" fill="none" xmlns="http://www.w3.org/2000/svg">
<g clip-path="url(#clip0_2_3)">
<g opacity="0.5">
<path d="M50 90.3899C49.645 90.3899 49.2986 90.2745 49.0208 90.0577L2.71988 54.3279C2.04707 53.7762 1.95831 52.791 2.51947 52.1323C3.05772 51.4989 4.00252 51.3892 4.67819 51.8761L50 86.8459L95.3218 51.879C96.0089 51.3469 97.0053 51.4652 97.5464 52.1407C98.0875 52.8163 97.9673 53.7959 97.2801 54.3279L50.9792 90.0577C50.6986 90.2745 50.355 90.3899 50 90.3899V90.3899Z" fill="white"/>
<path d="M99.4501 37.2301L49.9998 83.7607L0.549476 37.2301C-0.157693 36.5658 -0.18346 35.4652 0.492216 34.7699C0.827191 34.4265 1.28814 34.2322 1.77199 34.2322H98.2247C99.201 34.2322 99.9969 35.0063 99.9969 35.969C99.9969 36.4448 99.7994 36.9008 99.4501 37.2301V37.2301Z" fill="white"/>
</g>
<path d="M26.4824 84.76H73.5278C75.1081 84.76 76.3908 86.0211 76.3908 87.5749V98.0774H23.6194V87.5749C23.6194 86.0211 24.902 84.76 26.4824 84.76Z" fill="#333333"/>
<path d="M44.4794 90.3899H55.5307C59.4932 90.3899 62.7055 93.551 62.7055 97.4469V98.0774H37.3018V97.4469C37.3018 93.5482 40.5141 90.3899 44.4794 90.3899V90.3899Z" fill="#666666"/>
<path d="M85.9619 96.1548H78.3462V89.5623C78.3462 85.8466 75.2828 82.8374 71.5036 82.8374H28.5066C24.7274 82.8374 21.6668 85.8466 21.6639 89.5623V96.1548H14.0339C13.3382 96.1548 12.7742 97.0162 12.7742 98.0774C12.7742 99.1386 13.3468 100 14.0339 100H85.9619C86.6605 100 87.2245 99.1386 87.2245 98.0774C87.2245 97.0162 86.6605 96.1548 85.9619 96.1548ZM39.4233 96.1548C40.0245 93.8944 42.1031 92.3153 44.4794 92.3125H55.5307C57.907 92.3153 59.9856 93.8944 60.5868 96.1548H39.4233ZM64.5665 96.1548C63.908 91.7438 60.0629 88.4757 55.5307 88.4701H44.4794C39.9472 88.4813 36.1051 91.7495 35.4408 96.1548H25.5748V89.4947C25.5748 87.9409 26.8575 86.6798 28.4379 86.6798H71.5809C73.1613 86.6798 74.4439 87.9409 74.4439 89.4947V96.1548H64.5665Z" fill="black"/>
<path d="M64.1714 2.53342H35.8216C32.6592 2.53342 30.0956 5.05398 30.0956 8.16325V65.9338C30.0956 69.0431 32.6592 71.5637 35.8216 71.5637H64.1714C67.3338 71.5637 69.8974 69.0431 69.8974 65.9338V8.16325C69.8974 5.05398 67.3338 2.53342 64.1714 2.53342Z" fill="white"/>
<path d="M64.1714 74.0971H35.8273C31.2408 74.0971 27.5246 70.4434 27.5246 65.9339V8.16327C27.5246 3.65377 31.2408 0 35.8273 0H64.1714C68.7579 0 72.4742 3.65377 72.4742 8.16327V65.9339C72.4742 70.4434 68.7579 74.0971 64.1714 74.0971ZM35.8216 5.06685C34.0809 5.06685 32.6723 6.4518 32.6723 8.16327V65.9339C32.6723 67.6453 34.0809 69.0303 35.8216 69.0303H64.1656C65.9064 69.0303 67.315 67.6453 67.315 65.9339V8.16327C67.315 6.4518 65.9064 5.06685 64.1656 5.06685H35.8216Z" fill="black"/>
<path d="M49.9965 3.54822C50.5499 3.54822 50.9986 3.1005 50.9986 2.54822C50.9986 1.99593 50.5499 1.54822 49.9965 1.54822C49.4431 1.54822 48.9944 1.99593 48.9944 2.54822C48.9944 3.1005 49.4431 3.54822 49.9965 3.54822Z" fill="white"/>
</g>
<defs>
<clipPath id="clip0_2_3">
<rect width="100" height="100" fill="white"/>
</clipPath>
</defs>
</svg>
