<?xml version="1.0" encoding="utf-8"?>
<!-- Generator: Adobe Illustrator 26.0.3, SVG Export Plug-In . SVG Version: 6.00 Build 0)  -->
<svg version="1.1" id="Layer_1" xmlns="http://www.w3.org/2000/svg" xmlns:xlink="http://www.w3.org/1999/xlink" x="0px" y="0px"
	 viewBox="0 0 512 512" style="enable-background:new 0 0 512 512;" xml:space="preserve">
<style type="text/css">
	.st0{fill:#710193;}
	.st1{fill:#FFFFFF;}
</style>
<circle class="st0" cx="256" cy="256" r="256"/>
<path class="st1" d="M256,132.1c-68.4,0-123.9,55.5-123.9,123.9S187.6,379.9,256,379.9h62v-24.8h-62c-53.8,0-99.1-45.4-99.1-99.1
	s45.4-99.1,99.1-99.1s99.1,45.4,99.1,99.1v17.7c0,9.8-8.8,19.5-18.6,19.5c-9.8,0-18.6-9.7-18.6-19.5V256c0-34.2-27.8-62-62-62
	s-62,27.8-62,62s27.8,62,62,62c17.1,0,32.7-6.9,43.9-18.2c8.1,11,21.9,18.2,36.7,18.2c24.4,0,43.4-19.8,43.4-44.2V256
	C379.9,187.6,324.4,132.1,256,132.1z M256,293.2c-20.6,0-37.2-16.6-37.2-37.2s16.6-37.2,37.2-37.2s37.2,16.6,37.2,37.2
	S276.6,293.2,256,293.2z"/>
</svg>
