<svg xmlns="http://www.w3.org/2000/svg" viewBox="0 0 512 512"><defs><style>.cls-1{fill:#710193;}.cls-2{fill:#fff;}</style></defs><g id="Layer_2" data-name="Layer 2"><g id="Layer_1-2" data-name="Layer 1"><circle class="cls-1" cx="256" cy="256" r="256"/><path class="cls-2" d="M394.38,198.69c-.65-14.79-3-24.95-6.47-33.76a71.27,71.27,0,0,0-40.71-40.7c-8.86-3.43-19-5.82-33.75-6.47s-19.62-.87-57.4-.87-42.5.16-57.34.81-24.94,3-33.75,6.47a67.78,67.78,0,0,0-24.67,16.09,68.48,68.48,0,0,0-16,24.62c-3.42,8.86-5.81,19-6.46,33.75s-.88,19.62-.88,57.4.17,42.5.82,57.34,3,24.94,6.47,33.75a71.25,71.25,0,0,0,40.71,40.71c8.86,3.42,19,5.81,33.75,6.47s19.57.81,57.34.81,42.5-.16,57.34-.81,25-3.05,33.75-6.47a71.15,71.15,0,0,0,40.71-40.71c3.43-8.86,5.82-19,6.47-33.75s.82-19.57.82-57.34S395,213.53,394.38,198.69ZM369.32,312.28c-.6,13.59-2.88,20.93-4.78,25.82a46.1,46.1,0,0,1-26.42,26.41c-4.89,1.91-12.28,4.19-25.81,4.78-14.68.66-19.08.82-56.2.82s-41.58-.16-56.2-.82c-13.59-.59-20.93-2.87-25.82-4.78a45.85,45.85,0,0,1-26.36-26.36c-1.9-4.89-4.18-12.28-4.78-25.81-.65-14.68-.81-19.08-.81-56.2s.16-41.58.81-56.2c.6-13.59,2.88-20.93,4.78-25.82a42.28,42.28,0,0,1,10.44-16,43.18,43.18,0,0,1,16-10.38c4.89-1.9,12.28-4.18,25.81-4.78,14.68-.65,19.08-.82,56.2-.82s41.58.17,56.2.82c13.59.6,20.93,2.88,25.82,4.78a45.85,45.85,0,0,1,26.36,26.36c1.9,4.89,4.18,12.28,4.78,25.82.66,14.67.82,19.07.82,56.2S370,297.61,369.32,312.28Z"/><path class="cls-2" d="M256.05,184.56A71.47,71.47,0,1,0,327.53,256,71.49,71.49,0,0,0,256.05,184.56Zm0,117.83A46.36,46.36,0,1,1,302.42,256,46.37,46.37,0,0,1,256.05,302.39Z"/><path class="cls-2" d="M347,181.73A16.69,16.69,0,1,1,330.35,165,16.69,16.69,0,0,1,347,181.73Z"/></g></g></svg>