<svg id="Layer_1" data-name="Layer 1" xmlns="http://www.w3.org/2000/svg" viewBox="0 0 512 512"><defs><style>.cls-1{fill:#710193;}.cls-2{fill:#f1f2f2;}</style></defs><circle class="cls-1" cx="256" cy="256" r="256"/><path class="cls-2" d="M409,276.6V382.14H347.77V283.67c0-24.72-8.84-41.61-31-41.61-16.91,0-27,11.37-31.39,22.38-1.61,3.93-2,9.39-2,14.91V382.14H222.17s.82-166.78,0-184h61.2v26.08c-.13.2-.3.41-.41.6h.41v-.6c8.13-12.51,22.63-30.4,55.15-30.4,40.25,0,70.44,26.3,70.44,82.82ZM158.15,109.39c-20.93,0-34.63,13.74-34.63,31.79,0,17.67,13.3,31.81,33.83,31.81h.39c21.35,0,34.62-14.14,34.62-31.81-.41-18.05-13.27-31.79-34.21-31.79Zm-31,272.75h61.17v-184H127.16Z"/></svg>