<svg id="Layer_1" data-name="Layer 1" xmlns="http://www.w3.org/2000/svg" viewBox="0 0 512 512"><defs><style>.cls-1{fill:#710193;}.cls-2{fill:#fff;}</style></defs><circle class="cls-1" cx="256" cy="256" r="256"/><path class="cls-2" d="M283.3,228.68a56.56,56.56,0,0,0-9.7-7.81,57.83,57.83,0,0,0-72.08,7.81L149,281.26a57.83,57.83,0,0,0,81.74,81.82l43.37-43.37a4.13,4.13,0,0,0-2.93-7.06h-1.65a69.68,69.68,0,0,1-26.44-5.12,4.12,4.12,0,0,0-4.5.91l-31.18,31.22a24.79,24.79,0,0,1-35.07-35.06l52.74-52.71a24.79,24.79,0,0,1,35,0,16.93,16.93,0,0,0,23.21,0,16.36,16.36,0,0,0,0-23.21Z"/><path class="cls-2" d="M363,149a57.83,57.83,0,0,0-81.78,0l-43.33,43.29a4.14,4.14,0,0,0,3,7.06h1.53a69.4,69.4,0,0,1,26.39,5.17,4.17,4.17,0,0,0,4.51-.91l31.1-31.06a24.79,24.79,0,1,1,35.07,35.06l-38.75,38.71-.33.37-13.55,13.46a24.76,24.76,0,0,1-35,0,17,17,0,0,0-23.21,0,16.45,16.45,0,0,0,0,23.3A57.31,57.31,0,0,0,245.14,295c.86.42,1.73.75,2.6,1.12s1.77.66,2.64,1,1.78.62,2.65.87l2.43.66c1.65.41,3.31.74,5,1a57.62,57.62,0,0,0,6.15.58h3.14l2.48-.29c.91,0,1.86-.25,2.93-.25h1.41l2.85-.41,1.32-.25,2.4-.49h.45a57.92,57.92,0,0,0,26.81-15.2L363,230.79A57.84,57.84,0,0,0,363,149Z"/></svg>