<svg id="Layer_1" data-name="Layer 1" xmlns="http://www.w3.org/2000/svg" viewBox="0 0 512 512"><defs><style>.cls-1{fill:#710193;}.cls-2{fill:#fff;}</style></defs><circle class="cls-1" cx="256" cy="256" r="256"/><path class="cls-2" d="M183.62,161.7c51.72,0,93.65,42.22,93.65,94.3s-41.93,94.3-93.65,94.3S90,308.08,90,256,131.89,161.7,183.62,161.7Zm149.56,5.53C359,167.23,380,207,380,256h0c0,49-21,88.78-46.82,88.78S286.36,305,286.36,256,307.32,167.23,333.18,167.23Zm72.39,9.24c9.09,0,16.47,35.61,16.47,79.53s-7.38,79.53-16.47,79.53S389.1,299.92,389.1,256,396.47,176.47,405.57,176.47Z"/></svg>