<svg id="Layer_1" data-name="Layer 1" xmlns="http://www.w3.org/2000/svg" viewBox="0 0 512 512"><defs><style>.cls-1{fill:#710193;}.cls-2{fill:#f1f2f2;}</style></defs><circle class="cls-1" cx="256" cy="256" r="256"/><path class="cls-2" d="M412.81,184a122.22,122.22,0,0,1-35.15,9.62,61.36,61.36,0,0,0,26.91-33.84,122.43,122.43,0,0,1-38.86,14.84,61.24,61.24,0,0,0-104.27,55.82,173.69,173.69,0,0,1-126.13-63.94,61.25,61.25,0,0,0,18.93,81.7,60.91,60.91,0,0,1-27.71-7.66v.77a61.23,61.23,0,0,0,49.08,60A61.43,61.43,0,0,1,148,302.35a61.27,61.27,0,0,0,57.16,42.49,123.45,123.45,0,0,1-90.59,25.34,173.08,173.08,0,0,0,93.79,27.49c112.56,0,174.11-93.24,174.11-174.11q0-4-.18-7.91A123.94,123.94,0,0,0,412.81,184Z"/></svg>