<svg id="Layer_1" data-name="Layer 1" xmlns="http://www.w3.org/2000/svg" viewBox="0 0 512 512"><defs><style>.cls-1{fill:#710193;}.cls-2{fill:#fff;}</style></defs><circle class="cls-1" cx="256" cy="256" r="256"/><path class="cls-2" d="M432.41,153.37l-70.51-.2c0,2.56,0,5.63-.06,7.63,6,.14,21.32,3,26.13,15.58L320.43,332.27c-3.31-7.73-34.72-77.51-38.31-86.48L314.79,178c6.74-10.31,19.64-16.95,32.11-17.44l0-7.08L279,153.46c-.16,1.79,0,5.57-.24,7.45,19.14.51,26,4.8,21.39,16.23-7.57,17.19-23.44,49.77-26.54,55.71-9.71-20.29-15.88-35.9-26.45-57.83-4.56-10.17,5.51-14.13,16.15-14.42v-7.13l-78.56-.24c.06,3.34-.08,5.22-.08,7.67,10.95.16,25.16,1.33,30.83,10.87,7.51,14.63,32.56,72.7,40.14,88.26-9.67,18.55-33.15,62.43-41.56,78.89C202,312.17,157.46,206.83,144.86,179.64c-4.7-11.59,13.43-18.28,23.92-18.77l.07-7.73H79.49c0,2.32.1,6.16.1,7.87,14.5-.13,35.68,23.67,41.73,38.47,26.08,60.52,53,120.7,79,181.27a74.86,74.86,0,0,0,8.21,0c17-34.75,36.83-71.28,54.75-106.43l45.2,106.49s7.5.05,7.54,0c28.67-65.51,71.62-166,85.67-197.78,5.71-13.56,15.28-21.83,30.76-22.3l.11-7Z"/></svg>