<svg id="Layer_1" data-name="Layer 1" xmlns="http://www.w3.org/2000/svg" viewBox="0 0 512 512"><defs><style>.cls-1{fill:#710193;}.cls-2{fill:#fff;}</style></defs><circle class="cls-1" cx="256" cy="256" r="256"/><path class="cls-2" d="M409.37,179.05a40.09,40.09,0,0,0-28.19-28.2C356.14,144,256,144,256,144s-100.14,0-125.18,6.59a40.92,40.92,0,0,0-28.2,28.46C96,204.09,96,256,96,256s0,52.18,6.58,76.95a40.12,40.12,0,0,0,28.2,28.2C156.12,368,256,368,256,368s100.14,0,125.18-6.59a40.07,40.07,0,0,0,28.19-28.2c6.59-25,6.59-76.95,6.59-76.95S416.23,204.09,409.37,179.05ZM224.11,304V208l83.28,48Z"/></svg>