<?xml version="1.0" encoding="UTF-8"?>
<svg id="Layer_1" data-name="Layer 1" xmlns="http://www.w3.org/2000/svg" viewBox="0 0 349.28 355.25">
  <g id="Layer_2" data-name="Layer 2">
    <g id="Layer_2-2" data-name="Layer 2-2">
      <g>
        <g id="light" opacity=".5">
          <path d="M174.64,321.11c-1.24,0-2.45-.41-3.42-1.18L9.5,193c-2.35-1.96-2.66-5.46-.7-7.8,1.88-2.25,5.18-2.64,7.54-.91l158.3,124.23,158.3-124.22c2.4-1.89,5.88-1.47,7.77,.93,1.89,2.4,1.47,5.88-.93,7.77h0l-161.72,126.93c-.98,.77-2.18,1.18-3.42,1.18Z" fill="#e7d4ed"/>
          <path d="M347.36,132.26l-172.72,165.3L1.92,132.26c-2.47-2.36-2.56-6.27-.2-8.74,1.17-1.22,2.78-1.91,4.47-1.91H343.08c3.41,0,6.19,2.75,6.19,6.17,0,1.69-.69,3.31-1.91,4.48Z" fill="#e7d4ed"/>
        </g>
        <g id="base">
          <path d="M92.48,301.11h164.32c5.52,0,10,4.48,10,10v37.31H82.48v-37.31c0-5.52,4.48-10,10-10Z" fill="#c99ed6"/>
          <path d="M155.34,321.11h38.6c13.84,0,25.06,11.23,25.06,25.07v2.24h-88.73v-2.24c0-13.85,11.22-25.07,25.07-25.07h0Z" fill="#e7d4ed"/>
          <path d="M300.23,341.59h-26.6v-23.42c0-13.2-10.7-23.89-23.9-23.89H99.55c-13.2,0-23.89,10.69-23.9,23.89v23.42h-26.65c-2.43,0-4.4,3.06-4.4,6.83s2,6.83,4.4,6.83h251.23c2.44,0,4.41-3.06,4.41-6.83s-1.97-6.83-4.41-6.83Zm-162.55,0c2.1-8.03,9.36-13.64,17.66-13.65h38.6c8.3,.01,15.56,5.62,17.66,13.65h-73.92Zm87.82,0c-2.3-15.67-15.73-27.28-31.56-27.3h-38.6c-15.83,.04-29.25,11.65-31.57,27.3h-34.46v-23.66c0-5.52,4.48-10,10-10H250c5.52,0,10,4.48,10,10v23.66h-34.5Z" fill="#710193"/>
        </g>
        <g id="screen">
          <rect x="105.13" y="9" width="139.02" height="245.23" rx="20" ry="20" fill="#fff"/>
          <path d="M224.15,263.23H125.15c-16.02,0-29-12.98-29-29V29c0-16.02,12.98-29,29-29h99c16.02,0,29,12.98,29,29V234.23c0,16.02-12.98,29-29,29h0ZM125.13,18c-6.08,0-11,4.92-11,11V234.23c0,6.08,4.92,11,11,11h99c6.08,0,11-4.92,11-11V29c0-6.08-4.92-11-11-11H125.13Z" fill="#710193"/>
          <circle cx="174.64" cy="9" r="3.5" fill="#fff"/>
        </g>
      </g>
    </g>
  </g>
</svg>