<svg id="Layer_1" data-name="Layer 1" xmlns="http://www.w3.org/2000/svg" viewBox="0 0 100 100">
  <g>
    <g id="green">
      <path d="M50.76,57.75a4.42,4.42,0,0,1-4.42-4.42V30.19a4.42,4.42,0,0,1,8.84,0V53.33A4.42,4.42,0,0,1,50.76,57.75Z" fill="#ff5000"/>
    </g>
    <g id="yelorange">
      <path d="M37.11,63a4.42,4.42,0,0,1-4.42-4.42V38.46a4.42,4.42,0,1,1,8.84,0V58.54A4.42,4.42,0,0,1,37.11,63Z" fill="red"/>
    </g>
    <g id="orange">
      <path d="M64.41,63A4.42,4.42,0,0,1,60,58.54V36.79a4.42,4.42,0,0,1,8.84,0V58.54A4.42,4.42,0,0,1,64.41,63Z" fill="#fbb03b"/>
    </g>
    <g id="red">
      <path d="M78.05,67.88a4.42,4.42,0,0,1-4.42-4.42V48.83a4.43,4.43,0,0,1,8.85,0V63.46A4.42,4.42,0,0,1,78.05,67.88Z" fill="#00a35b"/>
    </g>
    <g id="blue">
      <path d="M26.68,74.23A4.41,4.41,0,0,1,22.85,72l-4.73-8.19a4.42,4.42,0,1,1,7.65-4.42L30.5,67.6a4.41,4.41,0,0,1-3.82,6.63Z" fill="#00a1d3"/>
    </g>
  </g>
</svg>
