<svg id="Layer_1" data-name="Layer 1" xmlns="http://www.w3.org/2000/svg" viewBox="0 0 100 100">
  <rect width="100" height="100" fill="#22b8dd"/>
  <g>
    <path d="M26.66,60.16a1.26,1.26,0,0,1-1.27-1.27V42.39a1.21,1.21,0,0,1,.37-.92,1.25,1.25,0,0,1,.9-.35h4.88a6.54,6.54,0,0,1,3.24.8A5.68,5.68,0,0,1,37,44.15a6.64,6.64,0,0,1,.8,3.28A6.27,6.27,0,0,1,37,50.6a5.53,5.53,0,0,1-2.2,2.17,6.64,6.64,0,0,1-3.24.78H27.93v5.34a1.22,1.22,0,0,1-.36.9A1.18,1.18,0,0,1,26.66,60.16Zm1.27-8.95h3.61a3.87,3.87,0,0,0,2-.49,3.52,3.52,0,0,0,1.34-1.34,3.82,3.82,0,0,0,.49-2,4.16,4.16,0,0,0-.49-2.06A3.68,3.68,0,0,0,33.51,44a3.78,3.78,0,0,0-2-.51H27.93Z" fill="#fff"/>
    <path d="M75.21,50.29H70.65a1.32,1.32,0,0,0-.9.32,1.06,1.06,0,0,0,0,1.61,1.32,1.32,0,0,0,.9.32H74v4.31a9.5,9.5,0,0,1-1.58.82,6.58,6.58,0,0,1-2.35.43,6.48,6.48,0,0,1-2.7-.58,6.9,6.9,0,0,1-2.23-1.59,7.28,7.28,0,0,1-1.5-2.38,8.06,8.06,0,0,1,0-5.8,7.31,7.31,0,0,1,3.73-4,6.33,6.33,0,0,1,2.7-.58,6.66,6.66,0,0,1,2.55.41,7.35,7.35,0,0,1,1.86,1.2,1.29,1.29,0,0,0,.89.31,1.19,1.19,0,0,0,.81-.34,1,1,0,0,0,.33-.78,2.11,2.11,0,0,0,0-.38.74.74,0,0,0-.15-.31A1.24,1.24,0,0,0,76,43a9.39,9.39,0,0,0-2.72-1.61,9.68,9.68,0,0,0-3.23-.48,9.06,9.06,0,0,0-3.7.75,9.38,9.38,0,0,0-3,2.09,9.62,9.62,0,0,0-2,3.09,10,10,0,0,0-.72,3.82,10.18,10.18,0,0,0,.72,3.85,9.82,9.82,0,0,0,2,3.11,9.19,9.19,0,0,0,6.69,2.81,9.58,9.58,0,0,0,3.17-.52,8.83,8.83,0,0,0,2.8-1.6,1.09,1.09,0,0,0,.31-.42,1.34,1.34,0,0,0,.08-.48V51.56a1.24,1.24,0,0,0-.34-.91A1.19,1.19,0,0,0,75.21,50.29Z" fill="#fff"/>
    <path d="M79.91,30.38H62.48a2.49,2.49,0,0,0-2.16-1.3,2.52,2.52,0,0,0,0,5,2.48,2.48,0,0,0,2.16-1.29H79.91A3.28,3.28,0,0,1,83.2,36.1l0,29.13a3.26,3.26,0,0,1-3.26,3.25H50.46a3.26,3.26,0,0,1-3.25-3.25,3.3,3.3,0,0,1,1.9-3L52,60.68a5.69,5.69,0,0,0,.07-10.28l-3-1.66a3.25,3.25,0,0,1-1.88-3,3.31,3.31,0,0,1,1.95-3l2.92-1.59a5.7,5.7,0,0,0-2.46-10.83H20.09a5.73,5.73,0,0,0-5.73,5.72l0,29.13a5.7,5.7,0,0,0,5.7,5.69H39a1.22,1.22,0,1,0,0-2.44H20.09a3.26,3.26,0,0,1-3.26-3.25l0-29.13a3.28,3.28,0,0,1,3.29-3.28H49.62a3.26,3.26,0,0,1,3.25,3.25A3.29,3.29,0,0,1,51,39l-2.9,1.59A5.69,5.69,0,0,0,48,50.91l3,1.66a3.25,3.25,0,0,1-.07,5.93L48,60.09a5.7,5.7,0,0,0,2.46,10.83H79.91a5.7,5.7,0,0,0,5.7-5.69l0-29.13A5.73,5.73,0,0,0,79.91,30.38Z" fill="#fff"/>
  </g>
</svg>
