<svg id="Layer_1" data-name="Layer 1" xmlns="http://www.w3.org/2000/svg" viewBox="0 0 100 100">
  <g>
    <rect width="100" height="100" fill="#5162ff"/>
    <path d="M19,59.39a12.34,12.34,0,0,1-4.11-.71,10.78,10.78,0,0,1-3.67-2.22l2.39-2.85a11.72,11.72,0,0,0,2.57,1.62,6.79,6.79,0,0,0,2.9.61A3.54,3.54,0,0,0,21,55.38a1.44,1.44,0,0,0,.7-1.27v0a1.54,1.54,0,0,0-.15-.7A1.39,1.39,0,0,0,21,52.8a5.54,5.54,0,0,0-1.13-.52A17.34,17.34,0,0,0,18,51.73,23.1,23.1,0,0,1,15.46,51a7.28,7.28,0,0,1-1.92-1,4.25,4.25,0,0,1-1.22-1.53,5.44,5.44,0,0,1-.43-2.27v-.06a5.34,5.34,0,0,1,.47-2.26,5.19,5.19,0,0,1,1.31-1.74,5.83,5.83,0,0,1,2-1.12,7.86,7.86,0,0,1,2.59-.4,10.53,10.53,0,0,1,6.8,2.33l-2.09,3a13.17,13.17,0,0,0-2.41-1.32,6.05,6.05,0,0,0-2.36-.49,2.8,2.8,0,0,0-1.76.46,1.37,1.37,0,0,0-.59,1.14v0a1.68,1.68,0,0,0,.17.77,1.48,1.48,0,0,0,.62.59,5.43,5.43,0,0,0,1.22.5c.51.16,1.16.34,1.95.55a19,19,0,0,1,2.48.82,7,7,0,0,1,1.84,1.1,4.26,4.26,0,0,1,1.13,1.51,5.12,5.12,0,0,1,.38,2.06v.06a5.69,5.69,0,0,1-.5,2.42,5,5,0,0,1-1.38,1.78A6.31,6.31,0,0,1,21.67,59,9.2,9.2,0,0,1,19,59.39Z" fill="#fff"/>
    <path d="M49.8,59.45a8.06,8.06,0,0,1-3.14-.6,7.65,7.65,0,0,1-2.47-1.63,7.24,7.24,0,0,1-1.63-2.4,7.69,7.69,0,0,1-.58-3v0a7.48,7.48,0,0,1,.59-3,7.78,7.78,0,0,1,1.64-2.43,7.61,7.61,0,0,1,2.48-1.64,8.18,8.18,0,0,1,3.15-.6,8,8,0,0,1,3.14.6,7.72,7.72,0,0,1,2.48,1.62,7.11,7.11,0,0,1,1.62,2.41,7.48,7.48,0,0,1,.58,3v0a7.35,7.35,0,0,1-.59,3,7.43,7.43,0,0,1-1.63,2.42A7.52,7.52,0,0,1,53,58.85,8.11,8.11,0,0,1,49.8,59.45Zm0-3a4.45,4.45,0,0,0,1.8-.35,4.24,4.24,0,0,0,1.4-1,4.69,4.69,0,0,0,.9-1.47,4.77,4.77,0,0,0,.33-1.78v0A4.86,4.86,0,0,0,53.94,50,4.35,4.35,0,0,0,53,48.55a4.55,4.55,0,0,0-1.43-1,4.22,4.22,0,0,0-1.79-.37,4.38,4.38,0,0,0-1.8.36,4.2,4.2,0,0,0-1.39,1A4.61,4.61,0,0,0,45.7,50a4.94,4.94,0,0,0-.32,1.78v0a5.07,5.07,0,0,0,.32,1.79A4.54,4.54,0,0,0,48,56.09,4.38,4.38,0,0,0,49.84,56.45Z" fill="#cad2ff"/>
    <path d="M79.21,44.53H73.64V40.81H88.82v3.72H83.24v14.6h-4Z" fill="#fff"/>
  </g>
</svg>
